REM DIRINDEX 1\2\6,1\2\7,1\2\8,1\2\9,1\3\10,1\3\11,1\4\12,1\4\13,1\4\14,1\5\15,1\5\16,1\5\17
REM DIRNAME folder01,folder02,folder03,folder04,folder05,folder06,folder07,folder08,folder09,folder10,folder11,folder12,folder13,folder14,folder15,folder16,folder17
TITLE ""
FILE "1900_2_sec15_1467_1482.mp3" MP3
  TRACK 01 AUDIO
    TITLE "0:"
    INDEX 01 00:00:00
  TRACK 02 AUDIO
    TITLE "13:cjc020_5079"
    INDEX 01 00:00:17
  TRACK 03 AUDIO
    TITLE "0:"
    INDEX 01 00:01:52
  TRACK 04 AUDIO
    TITLE "14:cjc020_5080"
    INDEX 01 00:01:56
  TRACK 05 AUDIO
    TITLE "0:"
    INDEX 01 00:02:69
  TRACK 06 AUDIO
    TITLE "13:cjc020_5081"
    INDEX 01 00:03:51
  TRACK 07 AUDIO
    TITLE "0:"
    INDEX 01 00:04:62
  TRACK 08 AUDIO
    TITLE "14:cjc020_5082"
    INDEX 01 00:04:64
  TRACK 09 AUDIO
    TITLE "0:"
    INDEX 01 00:08:40
  TRACK 10 AUDIO
    TITLE "13:cjc020_5083"
    INDEX 01 00:09:18
  TRACK 11 AUDIO
    TITLE "0:"
    INDEX 01 00:10:21
  TRACK 12 AUDIO
    TITLE "14:cjc020_5084"
    INDEX 01 00:10:25
  TRACK 13 AUDIO
    TITLE "0:"
    INDEX 01 00:12:63
  TRACK 14 AUDIO
    TITLE "13:cjc020_5085"
    INDEX 01 00:13:39
  TRACK 15 AUDIO
    TITLE "0:"
    INDEX 01 00:14:49
  TRACK 16 AUDIO
    TITLE "14:cjc020_5086"
    INDEX 01 00:14:54
  TRACK 17 AUDIO
    TITLE "0:"
    INDEX 01 00:17:72
  TRACK 18 AUDIO
    TITLE "13:cjc020_5087"
    INDEX 01 00:18:50
  TRACK 19 AUDIO
    TITLE "0:"
    INDEX 01 00:19:58
  TRACK 20 AUDIO
    TITLE "14:cjc020_5088"
    INDEX 01 00:19:63
  TRACK 21 AUDIO
    TITLE "0:"
    INDEX 01 00:22:09
  TRACK 22 AUDIO
    TITLE "13:cjc020_5089"
    INDEX 01 00:22:60
  TRACK 23 AUDIO
    TITLE "0:"
    INDEX 01 00:24:12
  TRACK 24 AUDIO
    TITLE "14:cjc020_5090"
    INDEX 01 00:24:14
  TRACK 25 AUDIO
    TITLE "0:"
    INDEX 01 00:25:56
  TRACK 26 AUDIO
    TITLE "13:cjc020_5091"
    INDEX 01 00:26:36
  TRACK 27 AUDIO
    TITLE "0:"
    INDEX 01 00:27:53
  TRACK 28 AUDIO
    TITLE "14:cjc020_5092"
    INDEX 01 00:27:57
  TRACK 29 AUDIO
    TITLE "0:"
    INDEX 01 00:29:64
  TRACK 30 AUDIO
    TITLE "13:cjc020_5093"
    INDEX 01 00:30:42
  TRACK 31 AUDIO
    TITLE "0:"
    INDEX 01 00:31:51
  TRACK 32 AUDIO
    TITLE "14:cjc020_5094"
    INDEX 01 00:31:55
  TRACK 33 AUDIO
    TITLE "0:"
    INDEX 01 00:32:62
  TRACK 34 AUDIO
    TITLE "13:cjc020_5095"
    INDEX 01 00:33:44
  TRACK 35 AUDIO
    TITLE "0:"
    INDEX 01 00:34:55
  TRACK 36 AUDIO
    TITLE "14:cjc020_5096"
    INDEX 01 00:34:57
  TRACK 37 AUDIO
    TITLE "0:"
    INDEX 01 00:38:59
  TRACK 38 AUDIO
    TITLE "13:cjc020_5097"
    INDEX 01 00:39:39
  TRACK 39 AUDIO
    TITLE "0:"
    INDEX 01 00:40:52
  TRACK 40 AUDIO
    TITLE "14:cjc020_5098"
    INDEX 01 00:40:54
  TRACK 41 AUDIO
    TITLE "0:"
    INDEX 01 00:43:35
  TRACK 42 AUDIO
    TITLE "13:cjc020_5099"
    INDEX 01 00:44:14
  TRACK 43 AUDIO
    TITLE "0:"
    INDEX 01 00:45:51
  TRACK 44 AUDIO
    TITLE "14:cjc020_5100"
    INDEX 01 00:45:55
  TRACK 45 AUDIO
    TITLE "0:"
    INDEX 01 00:47:15
  TRACK 46 AUDIO
    TITLE "13:cjc020_5101"
    INDEX 01 00:47:70
  TRACK 47 AUDIO
    TITLE "0:"
    INDEX 01 00:49:21
  TRACK 48 AUDIO
    TITLE "14:cjc020_5102"
    INDEX 01 00:49:27
  TRACK 49 AUDIO
    TITLE "0:"
    INDEX 01 00:52:36
  TRACK 50 AUDIO
    TITLE "12:cjc020_5103"
    INDEX 01 00:54:07
  TRACK 51 AUDIO
    TITLE "0:"
    INDEX 01 00:55:53
  TRACK 52 AUDIO
    TITLE "13:cjc020_5104"
    INDEX 01 00:56:51
  TRACK 53 AUDIO
    TITLE "0:"
    INDEX 01 00:58:03
  TRACK 54 AUDIO
    TITLE "14:cjc020_5105"
    INDEX 01 00:58:05
  TRACK 55 AUDIO
    TITLE "0:"
    INDEX 01 01:00:45
  TRACK 56 AUDIO
    TITLE "13:cjc020_5106"
    INDEX 01 01:01:23
  TRACK 57 AUDIO
    TITLE "0:"
    INDEX 01 01:02:59
  TRACK 58 AUDIO
    TITLE "14:cjc020_5107"
    INDEX 01 01:02:61
  TRACK 59 AUDIO
    TITLE "0:"
    INDEX 01 01:06:16
  TRACK 60 AUDIO
    TITLE "13:cjc020_5108"
    INDEX 01 01:06:65
  TRACK 61 AUDIO
    TITLE "0:"
    INDEX 01 01:08:01
  TRACK 62 AUDIO
    TITLE "14:cjc020_5109"
    INDEX 01 01:08:03
  TRACK 63 AUDIO
    TITLE "0:"
    INDEX 01 01:10:20
  TRACK 64 AUDIO
    TITLE "13:cjc020_5110"
    INDEX 01 01:11:02
  TRACK 65 AUDIO
    TITLE "0:"
    INDEX 01 01:12:34
  TRACK 66 AUDIO
    TITLE "14:cjc020_5111"
    INDEX 01 01:12:36
  TRACK 67 AUDIO
    TITLE "0:"
    INDEX 01 01:13:36
